<svg width="844" height="840" viewBox="0 0 844 840" fill="none" xmlns="http://www.w3.org/2000/svg">
<path d="M289.477 351.841L271.881 345.104C267.188 343.361 263.803 341.451 261.725 339.373C259.982 337.697 258.608 335.619 257.603 333.138C256.664 330.658 256.195 328.01 256.195 325.195C256.195 321.91 256.832 318.76 258.105 315.743C259.446 312.66 261.256 310.079 263.535 308.001C265.814 305.923 268.898 304.281 272.786 303.074C276.674 301.867 280.796 301.264 285.153 301.264C288.907 301.264 292.728 301.733 296.616 302.672C300.504 303.543 303.889 304.75 306.772 306.292C308.112 307.029 309.319 308.001 310.391 309.208C311.531 310.347 312.101 311.922 312.101 313.933C312.101 315.877 311.43 317.587 310.09 319.061C308.749 320.469 307.174 321.173 305.364 321.173C305.029 321.173 304.559 321.14 303.956 321.072C303.42 321.005 302.28 320.536 300.537 319.665C298.191 318.458 295.678 317.52 292.996 316.849C290.315 316.179 287.801 315.844 285.455 315.844C280.83 315.844 277.545 316.916 275.601 319.061C274.126 320.871 273.389 322.748 273.389 324.692C273.389 326.167 273.925 327.441 274.998 328.513C275.534 329.049 276.037 329.485 276.506 329.82C277.042 330.088 279.187 330.926 282.941 332.334L297.32 337.764C303.42 340.11 307.878 343.026 310.693 346.512C313.575 349.997 315.017 354.254 315.017 359.281C315.017 363.773 313.944 367.828 311.799 371.448C309.721 375.068 306.738 377.95 302.85 380.095C297.622 382.911 290.885 384.318 282.64 384.318C278.417 384.318 274.227 383.916 270.071 383.112C265.915 382.307 262.429 381.201 259.614 379.794C258.005 378.989 256.731 377.883 255.793 376.475C254.921 375.068 254.486 373.526 254.486 371.85C254.486 369.772 255.156 368.029 256.497 366.622C257.837 365.147 259.446 364.409 261.323 364.409C262.463 364.409 263.803 364.778 265.345 365.515C270.708 368.197 276.707 369.537 283.343 369.537C285.958 369.537 288.337 369.236 290.482 368.633C292.628 368.029 294.203 367.225 295.208 366.219C295.946 365.482 296.549 364.543 297.018 363.404C297.487 362.264 297.722 361.125 297.722 359.985C297.722 358.108 297.119 356.567 295.912 355.36C294.706 354.153 292.561 352.98 289.477 351.841ZM344.262 364.812L339.837 376.777C339.435 377.917 339.067 378.822 338.731 379.492C338.463 380.095 338.028 380.766 337.424 381.503C336.62 382.374 335.581 383.078 334.307 383.614C333.101 384.151 331.928 384.419 330.788 384.419C328.576 384.419 326.665 383.614 325.057 382.006C323.448 380.464 322.643 378.62 322.643 376.475C322.643 375.403 322.845 374.431 323.247 373.559L348.988 309.509C350.06 306.962 351.669 304.951 353.814 303.476C356.026 301.935 358.473 301.164 361.154 301.164C363.768 301.164 366.148 301.935 368.293 303.476C370.505 304.951 372.147 306.962 373.22 309.509L398.961 373.559C399.363 374.431 399.564 375.403 399.564 376.475C399.564 378.62 398.76 380.464 397.151 382.006C395.542 383.614 393.632 384.419 391.42 384.419C390.28 384.419 389.073 384.151 387.8 383.614C386.593 383.078 385.621 382.374 384.884 381.503C384.683 381.235 384.381 380.866 383.979 380.397C383.644 379.928 383.107 378.721 382.37 376.777L377.946 364.812H344.262ZM349.691 350.131H372.516L361.154 319.061L349.691 350.131ZM462.212 359.181V308.102C462.212 306.292 463.016 304.716 464.625 303.376C466.301 301.968 468.245 301.264 470.457 301.264C472.669 301.264 474.58 301.968 476.188 303.376C477.864 304.716 478.702 306.292 478.702 308.102V373.157C478.702 375.369 478.065 377.414 476.792 379.291C475.518 381.168 473.976 382.475 472.166 383.212C470.357 383.95 468.714 384.318 467.24 384.318C464.893 384.318 462.715 383.715 460.704 382.508C458.693 381.302 457.118 379.693 455.978 377.682L426.718 326.402V377.481C426.718 379.291 425.88 380.866 424.204 382.207C422.595 383.614 420.685 384.318 418.473 384.318C416.261 384.318 414.317 383.614 412.641 382.207C411.032 380.866 410.228 379.291 410.228 377.481V312.425C410.228 310.213 410.865 308.169 412.138 306.292C413.412 304.415 414.954 303.108 416.764 302.37C418.573 301.633 420.216 301.264 421.69 301.264C424.037 301.264 426.215 301.867 428.226 303.074C430.237 304.281 431.812 305.889 432.952 307.9L462.212 359.181ZM510.943 364.812L506.518 376.777C506.116 377.917 505.747 378.822 505.412 379.492C505.144 380.095 504.708 380.766 504.105 381.503C503.301 382.374 502.262 383.078 500.988 383.614C499.781 384.151 498.608 384.419 497.469 384.419C495.257 384.419 493.346 383.614 491.737 382.006C490.129 380.464 489.324 378.62 489.324 376.475C489.324 375.403 489.525 374.431 489.928 373.559L515.668 309.509C516.741 306.962 518.35 304.951 520.495 303.476C522.707 301.935 525.154 301.164 527.835 301.164C530.449 301.164 532.829 301.935 534.974 303.476C537.186 304.951 538.828 306.962 539.901 309.509L565.642 373.559C566.044 374.431 566.245 375.403 566.245 376.475C566.245 378.62 565.44 380.464 563.832 382.006C562.223 383.614 560.312 384.419 558.1 384.419C556.961 384.419 555.754 384.151 554.481 383.614C553.274 383.078 552.302 382.374 551.565 381.503C551.363 381.235 551.062 380.866 550.66 380.397C550.324 379.928 549.788 378.721 549.051 376.777L544.627 364.812H510.943ZM516.372 350.131H539.197L527.835 319.061L516.372 350.131ZM627.787 348.724L639.35 371.347C640.02 372.621 640.456 373.559 640.657 374.163C640.925 374.766 641.059 375.537 641.059 376.475C641.059 378.62 640.255 380.464 638.646 382.006C637.037 383.547 635.127 384.318 632.915 384.318C631.842 384.318 630.736 384.084 629.597 383.614C628.457 383.212 627.519 382.676 626.781 382.006C626.58 381.805 626.279 381.469 625.876 381C625.541 380.531 624.904 379.358 623.966 377.481L611.699 351.237H593.902V374.062C593.902 375.537 593.835 376.777 593.7 377.783C593.566 378.721 593.097 379.76 592.293 380.9C591.555 381.905 590.55 382.709 589.276 383.313C588.003 383.983 586.763 384.318 585.556 384.318C584.081 384.318 582.673 383.95 581.333 383.212C580.059 382.475 579.054 381.503 578.316 380.296C578.115 379.961 577.847 379.458 577.512 378.788C577.244 378.051 577.11 376.475 577.11 374.062V319.061C576.976 315.308 577.277 312.626 578.015 311.018C578.819 309.409 579.825 307.934 581.031 306.593C582.372 305.387 583.847 304.415 585.455 303.677C587.064 302.873 589.745 302.538 593.499 302.672H611.799C616.492 302.672 620.413 303.108 623.564 303.979C626.714 304.85 629.63 306.292 632.312 308.303C635.261 310.515 637.473 313.196 638.948 316.347C640.49 319.497 641.26 323.05 641.26 327.005C641.26 330.625 640.59 334.01 639.249 337.16C637.909 340.244 636.166 342.724 634.021 344.601C631.876 346.411 629.798 347.785 627.787 348.724ZM593.902 336.457H611.196C613.073 336.457 614.816 336.356 616.425 336.155C618.033 335.887 619.542 335.284 620.949 334.345C621.754 333.742 622.458 332.971 623.061 332.032C623.664 331.094 623.966 329.552 623.966 327.407C623.966 324.391 623.094 322.044 621.352 320.369C620.48 319.564 619.274 318.894 617.732 318.358C616.257 317.754 613.844 317.453 610.492 317.453H598.828C595.477 317.386 593.835 319.028 593.902 322.38V336.457Z" fill="#1C3E5C"/>
<path d="M197.177 292.693L197.642 291.671L197.549 291.578L195.876 292.972L194.39 294.366L193.182 295.945L191.509 298.175L190.58 299.754L188.908 303.378L188.35 306.63V308.581L188.815 312.019L190.209 315.271L192.16 318.058L194.204 320.102L196.805 322.611L199.779 325.305L201.544 326.978L204.517 329.579L208.419 333.11L210.092 334.69L211.764 336.176L214.087 338.499L216.41 340.729L217.618 341.844L219.29 343.423L220.498 344.91L221.799 346.582L222.821 348.348L223.75 350.392L224.307 352.064L224.493 354.294L224.122 357.081L222.263 361.634L224.4 359.311L225.608 358.104L227.002 356.431L228.303 354.573L229.232 353.086L230.718 349.741L231.369 347.233L231.648 344.538L230.997 341.008L229.975 338.685L228.767 336.734L227.188 334.597L225.237 332.831L223.007 330.601L220.684 328.464L219.383 327.071L215.76 323.912L212.879 321.124L211.114 319.452L207.862 316.572L206.004 314.806L204.053 313.041L201.544 310.625L200.243 309.232L199.314 308.21L198.292 306.816L197.363 305.236L196.712 303.75L196.062 302.263L195.598 300.777L195.505 299.29V297.989L195.598 297.339L195.69 296.688L195.876 295.945L196.062 295.202L196.341 294.458L196.712 293.529L197.177 292.693Z" fill="#E30613"/>
<path d="M185.006 305.515L185.47 304.493L185.378 304.4L183.705 305.794L182.219 307.188L181.011 308.767L179.338 310.997L178.409 312.577L176.737 316.2L176.179 319.452V321.403L176.644 324.841L178.037 328.093L179.989 330.88L182.033 332.924L184.634 335.433L187.607 338.128L189.373 339.8L192.346 342.402L196.248 345.932L197.921 347.512L199.593 348.998L201.916 351.321L204.239 353.551L205.447 354.666L207.119 356.246L208.327 357.732L209.628 359.405L210.65 361.17L211.579 363.214L212.136 364.886L212.322 367.116L211.951 369.904L210.092 374.456L212.229 372.134L213.437 370.926L214.831 369.253L216.132 367.395L217.061 365.908L218.547 362.564L219.198 360.055L219.476 357.36L218.826 353.83L217.804 351.507L216.596 349.556L215.017 347.419L213.065 345.654L210.836 343.424L208.513 341.287L207.212 339.893L203.588 336.734L200.708 333.947L198.943 332.274L195.691 329.394L193.833 327.628L191.881 325.863L189.373 323.447L188.072 322.054L187.143 321.032L186.121 319.638L185.192 318.058L184.541 316.572L183.891 315.085L183.426 313.599L183.333 312.112V310.811L183.426 310.161L183.519 309.511L183.705 308.767L183.891 308.024L184.17 307.281L184.541 306.352L185.006 305.515Z" fill="#E30613"/>
<path d="M172.834 318.337L173.299 317.315L173.206 317.222L171.533 318.616L170.047 320.009L168.839 321.589L167.167 323.819L166.237 325.398L164.565 329.022L164.008 332.274V334.225L164.472 337.663L165.866 340.915L167.817 343.702L169.861 345.746L172.463 348.255L175.436 350.949L177.201 352.622L180.174 355.223L184.077 358.754L185.749 360.333L187.422 361.82L189.744 364.143L192.067 366.373L193.275 367.488L194.947 369.067L196.155 370.554L197.456 372.226L198.478 373.991L199.407 376.036L199.965 377.708L200.151 379.938L199.779 382.725L197.921 387.278L200.058 384.955L201.265 383.747L202.659 382.075L203.96 380.217L204.889 378.73L206.376 375.385L207.026 372.877L207.305 370.182L206.654 366.651L205.632 364.329L204.424 362.377L202.845 360.24L200.894 358.475L198.664 356.245L196.341 354.108L195.04 352.715L191.417 349.556L188.536 346.768L186.771 345.096L183.519 342.215L181.661 340.45L179.71 338.685L177.201 336.269L175.9 334.875L174.971 333.853L173.949 332.46L173.02 330.88L172.37 329.393L171.719 327.907L171.255 326.42L171.162 324.934V323.633L171.255 322.983L171.348 322.332L171.533 321.589L171.719 320.846L171.998 320.102L172.37 319.173L172.834 318.337Z" fill="#E30613"/>
<path d="M255.787 397.605H640.847" stroke="#E30613" stroke-width="4.52125"/>
<path d="M657.475 366.953H648.292C648.292 366.953 647.457 367.638 647.457 368.244C647.457 368.851 648.292 369.536 648.292 369.536H654.971L662.485 395.803C662.485 395.803 661.283 397.537 661.232 398.817C661.137 401.205 664.989 403.553 664.989 403.553H691.288C691.288 403.553 692.518 402.975 692.54 402.262C692.559 401.656 691.705 400.97 691.705 400.97L664.989 400.539C664.989 400.539 664.154 399.569 664.154 398.817C664.154 398.065 664.989 397.094 664.989 397.094L691.705 397.525C691.705 397.525 696.297 385.468 698.384 375.134C698.812 373.018 697.549 372.981 697.549 372.981H659.145L657.475 366.953Z" fill="#E30613"/>
<path d="M674.173 408.29C674.063 405.915 672.301 404.097 669.998 403.984C667.578 403.865 665.522 405.793 665.407 408.29C665.286 410.903 667.465 413.151 669.998 413.027C672.419 412.908 674.288 410.787 674.173 408.29Z" fill="#E30613"/>
<path d="M689.618 408.29C689.503 405.793 687.45 403.984 685.026 403.984C682.603 403.984 680.55 405.793 680.434 408.29C680.314 410.903 682.49 413.027 685.026 413.027C687.562 413.027 689.739 410.903 689.618 408.29Z" fill="#E30613"/>
<path fill-rule="evenodd" clip-rule="evenodd" d="M215.313 429.307C218.007 427.993 221.029 427.336 224.381 427.336C226.681 427.336 229.178 427.632 231.872 428.223C234.566 428.814 236.964 429.57 239.067 430.49C241.235 431.476 242.55 432.001 243.01 432.067C243.535 432.133 243.962 432.166 244.291 432.166C246.131 432.166 247.708 431.443 249.022 429.997C250.402 428.552 251.092 426.843 251.092 424.872C251.092 423.098 250.599 421.586 249.614 420.338C248.628 419.024 247.084 417.874 244.981 416.888C238.016 413.865 231.182 412.354 224.479 412.354C210.023 412.354 199.443 417.841 192.741 428.814C188.601 435.714 186.531 443.895 186.531 453.357C186.531 460.191 187.55 466.335 189.587 471.789C191.69 477.178 194.712 481.613 198.655 485.096C201.743 487.79 205.62 489.893 210.286 491.404C215.017 492.981 220.077 493.77 225.465 493.77C229.802 493.77 234.007 493.244 238.081 492.192C242.155 491.207 245.507 489.827 248.135 488.053C251.092 486.081 252.571 483.453 252.571 480.167C252.571 478.065 251.946 476.323 250.698 474.943C249.449 473.498 247.872 472.775 245.967 472.775C244.718 472.775 243.371 473.235 241.925 474.155C239.56 475.601 236.931 476.75 234.04 477.605C231.149 478.393 228.323 478.788 225.563 478.788C221.949 478.788 218.664 478.065 215.707 476.619C212.75 475.173 210.351 473.104 208.511 470.409C205.686 466.532 204.273 461.078 204.273 454.047C204.273 446.228 205.817 439.887 208.906 435.024C210.483 432.527 212.618 430.622 215.313 429.307ZM311.836 415.311C307.237 413.34 302.374 412.354 297.249 412.354C290.678 412.354 284.731 413.635 279.408 416.198C274.151 418.695 269.946 422.243 266.792 426.843C264.689 429.932 263.013 433.874 261.765 438.671C260.984 441.67 260.448 444.668 260.155 447.667H277.42C277.676 445.446 278.109 443.268 278.718 441.135C279.835 437.455 281.248 434.597 282.957 432.56C284.599 430.786 286.571 429.439 288.871 428.519C291.17 427.533 293.667 427.04 296.362 427.04C301.75 427.04 306.054 428.486 309.274 431.377C311.377 433.349 313.052 436.24 314.301 440.051C315.139 442.483 315.71 445.021 316.014 447.667H333.27C332.893 443.69 332.089 439.903 330.86 436.306C329.151 431.049 326.753 426.712 323.664 423.295C320.445 419.878 316.502 417.217 311.836 415.311ZM333.026 460.832H315.64C314.873 465.539 313.408 469.355 311.245 472.282C307.96 476.816 303.097 479.083 296.657 479.083C293.175 479.083 290.086 478.393 287.392 477.013C284.764 475.568 282.661 473.498 281.084 470.804C279.5 467.993 278.394 464.669 277.764 460.832H260.441C260.676 462.486 260.986 464.134 261.371 465.777C262.356 469.917 263.605 473.399 265.116 476.225C266.693 479.05 268.172 481.219 269.552 482.73C272.706 486.147 276.681 488.841 281.478 490.813C286.275 492.784 291.335 493.77 296.657 493.77C302.243 493.77 307.302 492.817 311.836 490.911C316.436 489.071 320.346 486.377 323.566 482.829C326.786 479.28 329.25 474.976 330.958 469.917C331.916 467.043 332.605 464.015 333.026 460.832ZM394.409 419.056V469.128L365.726 418.859C364.609 416.888 363.065 415.311 361.093 414.128C359.122 412.945 356.986 412.354 354.687 412.354C353.241 412.354 351.631 412.715 349.857 413.438C348.083 414.161 346.571 415.442 345.323 417.282C344.074 419.122 343.45 421.126 343.45 423.295V487.067C343.45 488.841 344.239 490.385 345.816 491.7C347.458 493.08 349.364 493.77 351.532 493.77C353.701 493.77 355.574 493.08 357.151 491.7C358.793 490.385 359.615 488.841 359.615 487.067V436.995L388.298 487.264C389.415 489.236 390.959 490.813 392.93 491.995C394.902 493.178 397.037 493.77 399.337 493.77C400.783 493.77 402.393 493.408 404.167 492.685C405.941 491.963 407.452 490.681 408.701 488.841C409.949 487.001 410.574 484.997 410.574 482.829V419.056C410.574 417.282 409.752 415.738 408.109 414.424C406.532 413.044 404.66 412.354 402.491 412.354C400.323 412.354 398.417 413.044 396.774 414.424C395.197 415.738 394.409 417.282 394.409 419.056ZM474.902 419.056V469.128L446.219 418.859C445.102 416.888 443.558 415.311 441.586 414.128C439.615 412.945 437.48 412.354 435.18 412.354C433.734 412.354 432.124 412.715 430.35 413.438C428.576 414.161 427.064 415.442 425.816 417.282C424.567 419.122 423.943 421.126 423.943 423.295V487.067C423.943 488.841 424.732 490.385 426.309 491.7C427.951 493.08 429.857 493.77 432.026 493.77C434.194 493.77 436.067 493.08 437.644 491.7C439.287 490.385 440.108 488.841 440.108 487.067V436.995L468.791 487.264C469.908 489.236 471.452 490.813 473.423 491.995C475.395 493.178 477.53 493.77 479.83 493.77C481.276 493.77 482.886 493.408 484.66 492.685C486.434 491.963 487.945 490.681 489.194 488.841C490.442 487.001 491.067 484.997 491.067 482.829V419.056C491.067 417.282 490.245 415.738 488.603 414.424C487.025 413.044 485.153 412.354 482.984 412.354C480.816 412.354 478.91 413.044 477.267 414.424C475.69 415.738 474.902 417.282 474.902 419.056ZM552.734 444.684H520.897V433.25C520.831 429.964 522.441 428.355 525.727 428.42H556.183C557.958 428.42 559.469 427.697 560.717 426.252C561.966 424.806 562.59 423.065 562.59 421.028C562.59 419.056 561.966 417.348 560.717 415.902C559.469 414.457 557.958 413.734 556.183 413.734H517.644C514.03 413.734 510.909 415.048 508.28 417.677C505.718 420.239 504.436 423.295 504.436 426.843V479.28C504.436 482.829 505.718 485.917 508.28 488.546C510.909 491.108 514.03 492.39 517.644 492.39H556.676C558.385 492.39 559.863 491.667 561.112 490.221C562.36 488.776 562.984 487.034 562.984 484.997C562.984 483.026 562.36 481.317 561.112 479.872C559.863 478.426 558.385 477.703 556.676 477.703H525.727C522.441 477.769 520.831 476.159 520.897 472.874V459.37H552.734C554.508 459.37 556.019 458.647 557.268 457.202C558.516 455.756 559.14 454.015 559.14 451.978C559.14 450.006 558.516 448.298 557.268 446.852C556.019 445.406 554.508 444.684 552.734 444.684ZM599.104 429.307C601.798 427.993 604.821 427.336 608.172 427.336C610.472 427.336 612.969 427.632 615.663 428.223C618.358 428.814 620.756 429.57 622.859 430.49C625.027 431.476 626.341 432.001 626.801 432.067C627.327 432.133 627.754 432.166 628.083 432.166C629.923 432.166 631.5 431.443 632.814 429.997C634.194 428.552 634.884 426.843 634.884 424.872C634.884 423.098 634.391 421.586 633.405 420.338C632.42 419.024 630.875 417.874 628.773 416.888C621.807 413.865 614.973 412.354 608.271 412.354C593.815 412.354 583.235 417.841 576.533 428.814C572.393 435.714 570.323 443.895 570.323 453.357C570.323 460.191 571.342 466.335 573.379 471.789C575.481 477.178 578.504 481.613 582.447 485.096C585.535 487.79 589.412 489.893 594.077 491.404C598.809 492.981 603.868 493.77 609.257 493.77C613.594 493.77 617.799 493.244 621.873 492.192C625.947 491.207 629.298 489.827 631.927 488.053C634.884 486.081 636.362 483.453 636.362 480.167C636.362 478.065 635.738 476.323 634.49 474.943C633.241 473.498 631.664 472.775 629.758 472.775C628.51 472.775 627.163 473.235 625.717 474.155C623.352 475.601 620.723 476.75 617.832 477.605C614.941 478.393 612.115 478.788 609.355 478.788C605.741 478.788 602.456 478.065 599.499 476.619C596.542 475.173 594.143 473.104 592.303 470.409C589.478 466.532 588.065 461.078 588.065 454.047C588.065 446.228 589.609 439.887 592.698 435.024C594.275 432.527 596.41 430.622 599.104 429.307ZM648.711 429.209H668.03V486.574C668.03 488.546 668.851 490.221 670.494 491.601C672.202 493.047 674.207 493.77 676.506 493.77C678.806 493.77 680.778 493.047 682.42 491.601C684.129 490.221 684.983 488.546 684.983 486.574V429.209H704.302C706.142 429.209 707.719 428.453 709.033 426.942C710.413 425.365 711.103 423.525 711.103 421.422C711.103 419.319 710.413 417.512 709.033 416.001C707.719 414.49 706.142 413.734 704.302 413.734H648.711C646.871 413.734 645.261 414.49 643.881 416.001C642.567 417.512 641.91 419.319 641.91 421.422C641.91 423.525 642.567 425.365 643.881 426.942C645.261 428.453 646.871 429.209 648.711 429.209Z" fill="#E30613"/>
<path fill-rule="evenodd" clip-rule="evenodd" d="M458.115 74.419C289.662 56.5926 129.128 164.418 85.6967 333.368C42.2658 502.318 130.898 674.195 287.065 739.817L293.284 715.628C150.319 653.628 69.575 495.232 109.604 339.514C149.634 183.796 296.756 83.9763 451.897 98.6082L458.115 74.419ZM387.135 740.523C544.093 757.786 693.939 657.504 734.395 500.125C774.852 342.746 691.944 182.632 546.12 122.06L552.325 97.9237C711.352 162.076 802.159 335.666 758.303 506.271C714.446 676.876 551.181 785.153 380.931 764.66L387.135 740.523Z" fill="#FF0000"/>
<circle cx="319.968" cy="734.143" r="36.2048" stroke="#FF0000" stroke-width="13.1654"/>
<circle cx="520.74" cy="97.2675" r="36.2048" stroke="#FF0000" stroke-width="13.1654"/>
</svg>
