<svg width="319" height="147" viewBox="0 0 319 147" fill="none" xmlns="http://www.w3.org/2000/svg">
<path d="M247.507 111.613H259.374C260.258 111.613 261.032 112.011 261.695 112.806C262.358 113.602 262.689 114.53 262.689 115.591C262.689 116.652 262.358 117.58 261.695 118.375C261.032 119.171 260.258 119.569 259.374 119.569H247.507V131.702C247.507 132.541 247.109 133.249 246.313 133.823C245.518 134.442 244.59 134.751 243.529 134.751C242.468 134.751 241.54 134.442 240.744 133.823C239.949 133.249 239.551 132.541 239.551 131.702V119.569H227.683C226.799 119.569 226.026 119.171 225.363 118.375C224.7 117.58 224.368 116.652 224.368 115.591C224.368 114.53 224.7 113.602 225.363 112.806C226.026 112.011 226.799 111.613 227.683 111.613H239.551V99.48C239.551 98.6402 239.949 97.933 240.744 97.3584C241.54 96.7396 242.468 96.4302 243.529 96.4302C244.59 96.4302 245.518 96.7396 246.313 97.3584C247.109 97.933 247.507 98.6402 247.507 99.48V111.613Z" fill="url(#paint0_linear_8_23)"/>
<path d="M258.16 131.313V135.658C258.16 135.82 258.101 135.996 257.983 136.187C257.866 136.393 257.66 136.562 257.366 136.694C257.072 136.841 256.748 136.915 256.395 136.915C256.175 136.915 255.925 136.871 255.645 136.783C255.366 136.709 255.123 136.562 254.918 136.342C254.726 136.136 254.631 135.908 254.631 135.658V121.168C254.631 120.859 254.807 120.602 255.16 120.396C255.513 120.175 255.932 120.065 256.417 120.065C256.888 120.065 257.292 120.161 257.63 120.352C257.983 120.528 258.16 120.749 258.16 121.013V121.499C258.468 121.102 258.77 120.815 259.064 120.639C259.343 120.477 259.689 120.345 260.1 120.242C260.527 120.124 260.931 120.065 261.313 120.065C261.71 120.065 262.151 120.124 262.637 120.242C263.137 120.359 263.629 120.587 264.114 120.925C264.6 121.263 264.989 121.668 265.283 122.138C266.018 123.3 266.386 124.748 266.386 126.483C266.386 127.409 266.261 128.269 266.011 129.063C265.776 129.843 265.43 130.512 264.974 131.07C264.533 131.629 263.997 132.056 263.364 132.35C262.732 132.658 262.041 132.813 261.291 132.813C260.6 132.813 259.997 132.688 259.483 132.438C258.983 132.203 258.542 131.828 258.16 131.313ZM258.16 124.741V128.159C258.16 128.292 258.24 128.49 258.402 128.755C258.579 129.019 258.755 129.233 258.931 129.394C259.358 129.777 259.872 129.968 260.475 129.968C261.225 129.968 261.799 129.674 262.196 129.086C262.593 128.483 262.791 127.615 262.791 126.483C262.791 125.322 262.585 124.439 262.174 123.836C261.777 123.219 261.188 122.91 260.409 122.91C260.115 122.91 259.836 122.962 259.571 123.065C259.306 123.153 259.086 123.278 258.909 123.44C258.748 123.587 258.579 123.807 258.402 124.101C258.24 124.381 258.16 124.594 258.16 124.741ZM271.885 115.941V131.467C271.885 131.835 271.708 132.151 271.356 132.416C271.003 132.68 270.584 132.813 270.098 132.813C269.613 132.813 269.187 132.68 268.819 132.416C268.466 132.151 268.29 131.835 268.29 131.467V115.941C268.29 115.573 268.466 115.257 268.819 114.993C269.187 114.728 269.613 114.596 270.098 114.596C270.584 114.596 271.003 114.728 271.356 114.993C271.708 115.257 271.885 115.573 271.885 115.941ZM282.232 131.512V130.982C281.717 131.614 281.159 132.078 280.556 132.372C279.953 132.666 279.255 132.813 278.461 132.813C277.843 132.813 277.248 132.702 276.674 132.482C276.115 132.276 275.667 131.989 275.329 131.622C275.035 131.313 274.8 130.901 274.623 130.387C274.461 129.857 274.38 129.291 274.38 128.689V121.3C274.38 120.962 274.55 120.675 274.888 120.44C275.241 120.19 275.66 120.065 276.145 120.065C276.63 120.065 277.042 120.19 277.38 120.44C277.733 120.675 277.909 120.962 277.909 121.3V128.269C277.909 129.358 278.394 129.902 279.365 129.902C279.791 129.902 280.203 129.813 280.6 129.637C281.012 129.446 281.364 129.188 281.659 128.865C281.82 128.689 281.953 128.505 282.056 128.314C282.173 128.108 282.232 127.953 282.232 127.85V121.3C282.232 120.962 282.401 120.675 282.739 120.44C283.092 120.19 283.511 120.065 283.996 120.065C284.482 120.065 284.893 120.19 285.231 120.44C285.584 120.675 285.761 120.962 285.761 121.3V131.489C285.761 131.842 285.584 132.151 285.231 132.416C284.879 132.68 284.467 132.813 283.996 132.813C283.511 132.813 283.092 132.702 282.739 132.482C282.401 132.247 282.232 131.923 282.232 131.512ZM293.13 128.027L290.439 127.101C288.689 126.512 287.814 125.417 287.814 123.814C287.814 122.668 288.241 121.756 289.094 121.08C289.961 120.403 291.123 120.065 292.578 120.065C293.24 120.065 293.909 120.146 294.585 120.308C295.276 120.469 295.872 120.683 296.372 120.947C296.607 121.08 296.798 121.263 296.945 121.499C297.092 121.734 297.166 121.984 297.166 122.249C297.166 122.601 297.048 122.91 296.813 123.175C296.577 123.425 296.298 123.55 295.975 123.55C295.916 123.55 295.835 123.542 295.732 123.528C295.629 123.513 295.357 123.41 294.916 123.219C294.107 122.881 293.365 122.712 292.688 122.712C292.247 122.712 291.894 122.8 291.63 122.976C291.365 123.138 291.233 123.359 291.233 123.638C291.233 123.873 291.321 124.072 291.498 124.233C291.674 124.395 291.961 124.55 292.358 124.697L295.159 125.645C295.541 125.777 295.938 125.991 296.35 126.285C296.761 126.564 297.092 126.954 297.342 127.453C297.607 127.939 297.739 128.468 297.739 129.041C297.739 129.63 297.599 130.181 297.32 130.696C297.055 131.21 296.68 131.629 296.195 131.953C295.342 132.526 294.115 132.813 292.512 132.813C290.909 132.813 289.571 132.585 288.498 132.129C287.836 131.82 287.506 131.342 287.506 130.696C287.506 130.328 287.631 130.012 287.881 129.747C288.145 129.483 288.454 129.35 288.807 129.35C288.998 129.35 289.241 129.416 289.535 129.549C289.946 129.71 290.424 129.843 290.968 129.946C291.527 130.049 292.056 130.1 292.556 130.1C293.085 130.1 293.512 130.012 293.835 129.835C294.159 129.659 294.321 129.416 294.321 129.108C294.321 128.666 293.924 128.306 293.13 128.027Z" fill="url(#paint1_linear_8_23)"/>
<path fill-rule="evenodd" clip-rule="evenodd" d="M275.567 50.6332L269.907 48.7089C265.826 47.3672 262.861 45.8392 261.012 44.125C259.462 42.7447 258.216 41.0076 257.273 38.9136C257.084 38.4647 256.912 38.0086 256.759 37.5452L253.87 37.3938L251.352 37.1551L249.531 36.9634L247.301 36.5368L245.012 35.899L243.089 35.1477L241.166 34.3963L239.436 33.5198L238.091 32.3927L236.998 31.3518L236.548 30.7687L236.098 30.1856L235.666 29.4656L235.234 28.7455L234.899 27.9629L234.503 26.9689L234.282 25.9867L233.904 24.8557L233.73 24.844L233.169 27.0863L232.799 29.2034L232.875 31.2814L233.016 34.1929L233.381 36.0831L234.692 40.1099L236.847 43.0879L238.486 44.6493L241.855 47.0873L246.031 48.7504L250.393 49.6661L254.228 49.9243L259.03 50.1786L264.374 50.3311L267.607 50.4798L272.873 50.558L275.567 50.6332ZM305.886 52.7538L307.6 53.2421L310.28 54.2517L312.262 55.2143L314.328 56.8736L316.285 59.3546L318.184 64.2502L318.447 60.9512L318.683 59.1706L318.722 56.8931L318.508 54.5294L318.222 52.7136L316.952 49.0351L315.518 46.5893L313.543 44.2452L309.903 41.8582L306.893 40.6881L304.003 39.9407L300.572 39.295L297.067 39.1973L292.884 38.9156L288.683 38.7708L286.165 38.5321L282.201 38.4789L291.481 41.5863C296.789 43.3995 300.706 45.7547 303.234 48.652C304.339 49.8898 305.223 51.2571 305.886 52.7538Z" fill="url(#paint2_linear_8_23)"/>
<path fill-rule="evenodd" clip-rule="evenodd" d="M278.794 33.6855L275.283 42.8555C274.689 44.4624 274.078 45.5803 273.449 46.2091C272.892 46.766 272.198 47.0763 271.367 47.1399L271.442 46.2332L271.904 39.2373L272.182 33.9787L272.453 30.753L272.808 25.4192L273.245 20.63L273.648 16.808L274.729 12.4831L276.549 8.37361L279.113 5.09932L280.736 3.52061L283.793 1.48075L287.867 0.322806L289.77 0.0303254L292.684 2.71643e-05L294.764 0.00320415L296.865 0.452391L299.085 1.09868L299.066 1.27241L297.922 1.60659L296.932 1.79042L295.924 2.14797L295.129 2.45373L294.393 2.85804L293.657 3.26234L293.057 3.69003L292.458 4.11771L291.376 5.17018L290.199 6.47156L289.257 8.16714L288.433 10.0598L287.609 11.9525L286.885 14.216L286.374 16.4278L286.114 18.2402L285.78 20.7476L285.362 25.3631L285.31 26.1428C285.216 26.1755 285.123 26.2095 285.03 26.2447C283.737 26.7687 282.654 27.4848 281.781 28.3931C280.698 29.476 279.702 31.2401 278.794 33.6855ZM270.604 56.1427L270.555 56.6051L270.174 60.8731L270.013 63.0564L269.76 66.1083L269.289 68.5923L268.723 71.3252L267.904 73.8377L266.793 76.4771L265.756 78.4216L264.019 80.4229L261.466 82.284L256.502 83.9966L259.788 84.3839L261.559 84.6878L263.833 84.8129L266.203 84.6891L268.029 84.4718L271.753 83.3422L274.251 82.0023L276.668 80.1179L279.192 76.5713L280.475 73.6078L281.332 70.7479C281.332 70.7479 281.91 68.6953 282.107 67.3435C282.225 66.536 282.244 65.9343 282.264 65.2918C282.277 64.8546 282.292 64.3984 282.338 63.8455C282.409 62.9972 282.486 62.3442 282.564 61.6833C282.636 61.074 282.709 60.458 282.778 59.6761C282.924 58.0398 283.082 55.4832 283.082 55.4832L283.416 52.9758L283.746 46.5763L284.066 43.1106L282.619 46.9427C281.397 50.1216 279.877 52.4446 278.06 53.9118C276.244 55.414 274.026 56.165 271.406 56.165C271.135 56.165 270.868 56.1576 270.604 56.1427Z" fill="url(#paint3_linear_8_23)"/>
<path d="M59.9471 61.8126L51.5399 58.5938C49.298 57.7611 47.6806 56.8484 46.6878 55.8555C45.8551 55.0548 45.1985 54.062 44.7181 52.877C44.2698 51.692 44.0456 50.4269 44.0456 49.0818C44.0456 47.5124 44.3498 46.0072 44.9583 44.5659C45.5989 43.0927 46.4636 41.8596 47.5525 40.8668C48.6415 39.874 50.1147 39.0893 51.9723 38.5128C53.8299 37.9363 55.7995 37.6481 57.8813 37.6481C59.6748 37.6481 61.5004 37.8723 63.3579 38.3206C65.2155 38.737 66.8329 39.3135 68.2101 40.0501C68.8506 40.4024 69.4271 40.8668 69.9395 41.4433C70.484 41.9877 70.7562 42.7404 70.7562 43.7012C70.7562 44.63 70.4359 45.4467 69.7954 46.1513C69.1549 46.8238 68.4022 47.1601 67.5375 47.1601C67.3774 47.1601 67.1532 47.1441 66.8649 47.1121C66.6087 47.0801 66.0642 46.8559 65.2315 46.4395C64.1106 45.863 62.9096 45.4147 61.6285 45.0944C60.3474 44.7741 59.1464 44.614 58.0254 44.614C55.8155 44.614 54.2462 45.1264 53.3174 46.1513C52.6128 47.016 52.2605 47.9128 52.2605 48.8416C52.2605 49.5462 52.5167 50.1547 53.0292 50.6671C53.2854 50.9233 53.5256 51.1315 53.7498 51.2916C54.006 51.4198 55.0309 51.8201 56.8244 52.4927L63.6942 55.0869C66.6087 56.2078 68.7385 57.601 70.0836 59.2664C71.4608 60.9318 72.1494 62.9655 72.1494 65.3676C72.1494 67.5134 71.637 69.451 70.6121 71.1805C69.6193 72.91 68.194 74.2871 66.3365 75.312C63.8384 76.6572 60.6196 77.3297 56.6803 77.3297C54.6626 77.3297 52.6609 77.1376 50.6752 76.7532C48.6895 76.3689 47.0241 75.8405 45.6789 75.1679C44.9103 74.7836 44.3018 74.2551 43.8534 73.5826C43.437 72.91 43.2289 72.1734 43.2289 71.3727C43.2289 70.3798 43.5491 69.5471 44.1897 68.8746C44.8302 68.17 45.5989 67.8177 46.4956 67.8177C47.0401 67.8177 47.6806 67.9938 48.4173 68.3461C50.9794 69.6272 53.8459 70.2677 57.0166 70.2677C58.2656 70.2677 59.4026 70.1236 60.4275 69.8354C61.4523 69.5471 62.205 69.1628 62.6854 68.6824C63.0377 68.3301 63.3259 67.8817 63.5501 67.3373C63.7743 66.7928 63.8864 66.2483 63.8864 65.7039C63.8864 64.8071 63.5981 64.0705 63.0217 63.494C62.4452 62.9175 61.4203 62.357 59.9471 61.8126ZM86.1221 68.0098L84.0083 73.7267C83.8162 74.2711 83.64 74.7035 83.4799 75.0238C83.3518 75.312 83.1436 75.6323 82.8554 75.9846C82.471 76.4009 81.9746 76.7372 81.3661 76.9934C80.7896 77.2497 80.2291 77.3778 79.6847 77.3778C78.6278 77.3778 77.715 76.9934 76.9463 76.2248C76.1777 75.4882 75.7934 74.6074 75.7934 73.5826C75.7934 73.0701 75.8894 72.6057 76.0816 72.1894L88.38 41.5874C88.8925 40.3704 89.6611 39.4096 90.686 38.705C91.7429 37.9683 92.9119 37.6 94.193 37.6C95.442 37.6 96.579 37.9683 97.6039 38.705C98.6608 39.4096 99.4454 40.3704 99.9579 41.5874L112.256 72.1894C112.448 72.6057 112.545 73.0701 112.545 73.5826C112.545 74.6074 112.16 75.4882 111.392 76.2248C110.623 76.9934 109.71 77.3778 108.653 77.3778C108.109 77.3778 107.532 77.2497 106.924 76.9934C106.347 76.7372 105.883 76.4009 105.531 75.9846C105.435 75.8565 105.29 75.6803 105.098 75.4561C104.938 75.232 104.682 74.6555 104.33 73.7267L102.216 68.0098H86.1221ZM88.7163 60.9959H99.6216L94.193 46.1513L88.7163 60.9959ZM142.477 65.3195V40.9148C142.477 40.0501 142.861 39.2975 143.63 38.6569C144.43 37.9844 145.359 37.6481 146.416 37.6481C147.473 37.6481 148.386 37.9844 149.154 38.6569C149.955 39.2975 150.355 40.0501 150.355 40.9148V71.9972C150.355 73.0541 150.051 74.0309 149.442 74.9277C148.834 75.8245 148.097 76.449 147.233 76.8013C146.368 77.1536 145.583 77.3297 144.879 77.3297C143.758 77.3297 142.717 77.0415 141.756 76.465C140.795 75.8885 140.042 75.1199 139.498 74.159L125.518 49.6583V74.063C125.518 74.9277 125.118 75.6803 124.317 76.3209C123.549 76.9934 122.636 77.3297 121.579 77.3297C120.522 77.3297 119.593 76.9934 118.792 76.3209C118.024 75.6803 117.639 74.9277 117.639 74.063V42.9806C117.639 41.9237 117.944 40.9469 118.552 40.0501C119.161 39.1533 119.897 38.5288 120.762 38.1765C121.627 37.8242 122.412 37.6481 123.116 37.6481C124.237 37.6481 125.278 37.9363 126.239 38.5128C127.2 39.0893 127.952 39.8579 128.497 40.8188L142.477 65.3195ZM165.759 68.0098L163.645 73.7267C163.453 74.2711 163.277 74.7035 163.117 75.0238C162.989 75.312 162.781 75.6323 162.492 75.9846C162.108 76.4009 161.612 76.7372 161.003 76.9934C160.427 77.2497 159.866 77.3778 159.322 77.3778C158.265 77.3778 157.352 76.9934 156.583 76.2248C155.815 75.4882 155.43 74.6074 155.43 73.5826C155.43 73.0701 155.526 72.6057 155.719 72.1894L168.017 41.5874C168.529 40.3704 169.298 39.4096 170.323 38.705C171.38 37.9683 172.549 37.6 173.83 37.6C175.079 37.6 176.216 37.9683 177.241 38.705C178.298 39.4096 179.082 40.3704 179.595 41.5874L191.893 72.1894C192.085 72.6057 192.181 73.0701 192.181 73.5826C192.181 74.6074 191.797 75.4882 191.028 76.2248C190.26 76.9934 189.347 77.3778 188.29 77.3778C187.746 77.3778 187.169 77.2497 186.561 76.9934C185.984 76.7372 185.52 76.4009 185.168 75.9846C185.071 75.8565 184.927 75.6803 184.735 75.4561C184.575 75.232 184.319 74.6555 183.967 73.7267L181.853 68.0098H165.759ZM168.353 60.9959H179.259L173.83 46.1513L168.353 60.9959ZM221.585 60.3233L227.11 71.1325C227.43 71.741 227.638 72.1894 227.734 72.4776C227.862 72.7659 227.926 73.1342 227.926 73.5826C227.926 74.6074 227.542 75.4882 226.773 76.2248C226.005 76.9614 225.092 77.3297 224.035 77.3297C223.523 77.3297 222.994 77.2176 222.45 76.9934C221.905 76.8013 221.457 76.5451 221.105 76.2248C221.009 76.1287 220.864 75.9686 220.672 75.7444C220.512 75.5202 220.208 74.9597 219.759 74.063L213.899 61.5243H205.395V72.4296C205.395 73.1342 205.363 73.7267 205.299 74.2071C205.235 74.6555 205.011 75.1519 204.627 75.6963C204.274 76.1768 203.794 76.5611 203.185 76.8493C202.577 77.1696 201.984 77.3297 201.408 77.3297C200.703 77.3297 200.031 77.1536 199.39 76.8013C198.782 76.449 198.301 75.9846 197.949 75.4081C197.853 75.248 197.725 75.0078 197.565 74.6875C197.437 74.3352 197.372 73.5826 197.372 72.4296V46.1513C197.308 44.3578 197.453 43.0767 197.805 42.308C198.189 41.5394 198.67 40.8348 199.246 40.1942C199.887 39.6177 200.591 39.1533 201.36 38.801C202.129 38.4167 203.41 38.2566 205.203 38.3206H213.947C216.188 38.3206 218.062 38.5288 219.567 38.9452C221.073 39.3615 222.466 40.0501 223.747 41.0109C225.156 42.0678 226.213 43.3489 226.918 44.8542C227.654 46.3595 228.022 48.0569 228.022 49.9465C228.022 51.676 227.702 53.2933 227.062 54.7986C226.421 56.2719 225.588 57.4569 224.564 58.3536C223.539 59.2184 222.546 59.8749 221.585 60.3233ZM205.395 54.4623H213.658C214.555 54.4623 215.388 54.4143 216.156 54.3182C216.925 54.1901 217.646 53.9019 218.318 53.4535C218.703 53.1652 219.039 52.7969 219.327 52.3485C219.615 51.9002 219.759 51.1635 219.759 50.1387C219.759 48.6974 219.343 47.5765 218.51 46.7758C218.094 46.3915 217.518 46.0712 216.781 45.815C216.076 45.5268 214.923 45.3826 213.322 45.3826H207.749C206.148 45.3506 205.363 46.1353 205.395 47.7366V54.4623Z" fill="#0075DB"/>
<path d="M15.8478 34.1977L16.0698 33.7094L16.0254 33.665L15.2264 34.3309L14.5161 34.9968L13.939 35.7515L13.1399 36.8169L12.696 37.5715L11.897 39.3028L11.6306 40.8565V41.7887L11.8526 43.4312L12.5185 44.985L13.4507 46.3167L14.4273 47.2933L15.6703 48.4919L17.0908 49.7793L17.9343 50.5783L19.3548 51.8213L21.2192 53.5082L22.0183 54.2628L22.8174 54.9731L23.9272 56.0829L25.0369 57.1483L25.614 57.681L26.4131 58.4357L26.9902 59.1459L27.6117 59.945L28.1 60.7884L28.5439 61.7651L28.8103 62.5641L28.899 63.6295L28.7215 64.9613L27.8336 67.1365L28.8546 66.0267L29.4317 65.4496L30.0976 64.6505L30.7191 63.7627L31.163 63.0524L31.8733 61.4543L32.184 60.2557L32.3172 58.9684L32.0065 57.2815L31.5182 56.1717L30.9411 55.2395L30.1864 54.2185L29.2542 53.375L28.1888 52.3096L27.079 51.2886L26.4575 50.6227L24.7262 49.1134L23.3501 47.7816L22.5066 46.9826L20.9529 45.6064L20.0651 44.763L19.1328 43.9195L17.9343 42.7654L17.3128 42.0995L16.8689 41.6112L16.3805 40.9453L15.9366 40.1906L15.6259 39.4804L15.3151 38.7701L15.0932 38.0598L15.0488 37.3496V36.7281L15.0932 36.4173L15.1376 36.1066L15.2264 35.7515L15.3151 35.3963L15.4483 35.0412L15.6259 34.5973L15.8478 34.1977Z" fill="#E30613"/>
<path d="M10.0327 40.3237L10.2546 39.8354L10.2102 39.791L9.41117 40.4569L8.7009 41.1228L8.1238 41.8774L7.32475 42.9428L6.88083 43.6975L6.08178 45.4288L5.81543 46.9825V47.9147L6.03739 49.5572L6.70327 51.1109L7.63549 52.4427L8.61211 53.4193L9.85509 54.6179L11.2756 55.9052L12.1191 56.7043L13.5396 57.9473L15.4041 59.6342L16.2031 60.3888L17.0022 61.0991L18.112 62.2089L19.2218 63.2743L19.7989 63.807L20.5979 64.5616L21.175 65.2719L21.7965 66.071L22.2848 66.9144L22.7287 67.891L22.9951 68.6901L23.0839 69.7555L22.9063 71.0872L22.0184 73.2624L23.0395 72.1527L23.6166 71.5756L24.2824 70.7765L24.9039 69.8887L25.3478 69.1784L26.0581 67.5803L26.3688 66.3817L26.502 65.0944L26.1913 63.4075L25.703 62.2977L25.1259 61.3654L24.3712 60.3444L23.439 59.501L22.3736 58.4356L21.2638 57.4146L20.6423 56.7487L18.911 55.2394L17.5349 53.9076L16.6914 53.1086L15.1377 51.7324L14.2499 50.889L13.3176 50.0455L12.1191 48.8913L11.4976 48.2255L11.0537 47.7372L10.5654 47.0713L10.1214 46.3166L9.81069 45.6063L9.49995 44.8961L9.27799 44.1858L9.2336 43.4755V42.8541L9.27799 42.5433L9.32238 42.2326L9.41117 41.8774L9.49995 41.5223L9.63313 41.1672L9.81069 40.7232L10.0327 40.3237Z" fill="#E30613"/>
<path d="M4.21722 46.4499L4.43918 45.9616L4.39479 45.9172L3.59574 46.5831L2.88547 47.249L2.30837 48.0037L1.50932 49.0691L1.0654 49.8237L0.266351 51.555L0 53.1087V54.0409L0.221959 55.6834L0.887837 57.2372L1.82006 58.5689L2.79668 59.5455L4.03966 60.7441L5.46019 62.0315L6.30364 62.8305L7.72418 64.0735L9.58863 65.7604L10.3877 66.515L11.1867 67.2253L12.2965 68.3351L13.4063 69.4005L13.9834 69.9332L14.7825 70.6879L15.3596 71.3981L15.9811 72.1972L16.4694 73.0406L16.9133 74.0173L17.1796 74.8163L17.2684 75.8817L17.0909 77.2135L16.203 79.3887L17.224 78.2789L17.8011 77.7018L18.467 76.9027L19.0885 76.0149L19.5324 75.3046L20.2427 73.7065L20.5534 72.5079L20.6866 71.2206L20.3758 69.5337L19.8875 68.4239L19.3104 67.4917L18.5558 66.4706L17.6236 65.6272L16.5582 64.5618L15.4484 63.5408L14.8269 62.8749L13.0956 61.3656L11.7194 60.0338L10.876 59.2348L9.32228 57.8586L8.43445 57.0152L7.50222 56.1717L6.30364 55.0176L5.68215 54.3517L5.23824 53.8634L4.74993 53.1975L4.30601 52.4428L3.99526 51.7326L3.68452 51.0223L3.46256 50.312L3.41817 49.6018V48.9803L3.46256 48.6695L3.50695 48.3588L3.59574 48.0037L3.68452 47.6485L3.8177 47.2934L3.99526 46.8495L4.21722 46.4499Z" fill="#E30613"/>
<path d="M38.8831 84.0691C38.8831 87.2505 41.4621 89.8295 44.6436 89.8295C47.825 89.8295 50.404 87.2505 50.404 84.0691C50.404 80.8877 47.825 78.3086 44.6436 78.3086C41.4621 78.3086 38.8831 80.8877 38.8831 84.0691ZM222.857 84.0691C222.857 87.2505 225.437 89.8295 228.618 89.8295C231.799 89.8295 234.378 87.2505 234.378 84.0691C234.378 80.8877 231.799 78.3086 228.618 78.3086C225.437 78.3086 222.857 80.8877 222.857 84.0691ZM44.6436 85.1492H228.618V82.989H44.6436V85.1492Z" fill="#E30613"/>
<path fill-rule="evenodd" clip-rule="evenodd" d="M21.1387 107.552C22.4519 106.911 23.9251 106.591 25.5585 106.591C26.6794 106.591 27.8965 106.735 29.2096 107.023C30.5227 107.311 31.6917 107.68 32.7166 108.128C33.7735 108.608 34.414 108.865 34.6382 108.897C34.8944 108.929 35.1026 108.945 35.2627 108.945C36.1595 108.945 36.9281 108.592 37.5687 107.888C38.2412 107.183 38.5775 106.351 38.5775 105.39C38.5775 104.525 38.3373 103.788 37.8569 103.18C37.3765 102.539 36.6239 101.979 35.599 101.498C32.2041 100.025 28.8733 99.2886 25.6065 99.2886C18.5606 99.2886 13.4042 101.963 10.1374 107.311C8.1197 110.674 7.11084 114.662 7.11084 119.274C7.11084 122.604 7.60726 125.599 8.6001 128.257C9.62497 130.883 11.0982 133.045 13.0199 134.743C14.5251 136.056 16.4147 137.081 18.6887 137.817C20.9946 138.586 23.4607 138.97 26.0869 138.97C28.2007 138.97 30.2505 138.714 32.2362 138.202C34.2218 137.721 35.8552 137.049 37.1363 136.184C38.5775 135.223 39.2981 133.942 39.2981 132.341C39.2981 131.316 38.9939 130.467 38.3854 129.794C37.7769 129.09 37.0082 128.738 36.0794 128.738C35.4709 128.738 34.8143 128.962 34.1097 129.41C32.9568 130.115 31.6757 130.675 30.2665 131.092C28.8573 131.476 27.4801 131.668 26.135 131.668C24.3735 131.668 22.7721 131.316 21.3309 130.611C19.8897 129.907 18.7207 128.898 17.8239 127.585C16.4468 125.695 15.7582 123.037 15.7582 119.61C15.7582 115.799 16.5108 112.708 18.0161 110.338C18.7847 109.121 19.8256 108.192 21.1387 107.552ZM68.1841 100.73C65.9422 99.769 63.5722 99.2886 61.0741 99.2886C57.8714 99.2886 54.9729 99.9131 52.3787 101.162C49.8166 102.379 47.7668 104.109 46.2295 106.351C45.2047 107.856 44.388 109.777 43.7794 112.115C43.3465 113.779 43.0675 115.443 42.9426 117.106H51.3489C51.459 115.813 51.6902 114.549 52.0425 113.316C52.5869 111.523 53.2755 110.13 54.1082 109.137C54.9089 108.272 55.8697 107.616 56.9907 107.167C58.1116 106.687 59.3286 106.447 60.6418 106.447C63.268 106.447 65.3658 107.151 66.9351 108.56C67.96 109.521 68.7767 110.93 69.3852 112.788C69.8575 114.158 70.1557 115.597 70.2797 117.106H78.6814C78.526 114.946 78.1175 112.898 77.456 110.962C76.6233 108.4 75.4543 106.287 73.949 104.621C72.3797 102.956 70.4581 101.659 68.1841 100.73ZM78.4245 123.523H69.9294C69.5336 125.54 68.8558 127.199 67.8959 128.497C66.2945 130.707 63.9245 131.812 60.7859 131.812C59.0884 131.812 57.5832 131.476 56.27 130.803C54.989 130.099 53.9641 129.09 53.1954 127.777C52.5082 126.557 52.0053 125.139 51.6867 123.523H43.2272C43.3267 124.125 43.4467 124.727 43.5873 125.327C44.0677 127.344 44.6762 129.042 45.4128 130.419C46.1815 131.796 46.9021 132.853 47.5747 133.59C49.112 135.255 51.0496 136.568 53.3876 137.529C55.7256 138.49 58.1917 138.97 60.7859 138.97C63.5082 138.97 65.9743 138.506 68.1841 137.577C70.426 136.68 72.3317 135.367 73.901 133.638C75.4703 131.908 76.6713 129.81 77.5041 127.344C77.9097 126.128 78.2165 124.854 78.4245 123.523ZM108.43 102.555V126.96L94.4497 102.459C93.9052 101.498 93.1526 100.73 92.1918 100.153C91.2309 99.5768 90.1901 99.2886 89.0691 99.2886C88.3645 99.2886 87.5798 99.4647 86.7151 99.817C85.8504 100.169 85.1138 100.794 84.5052 101.691C83.8967 102.587 83.5925 103.564 83.5925 104.621V135.703C83.5925 136.568 83.9768 137.321 84.7454 137.961C85.5461 138.634 86.4749 138.97 87.5318 138.97C88.5887 138.97 89.5015 138.634 90.2701 137.961C91.0708 137.321 91.4712 136.568 91.4712 135.703V111.299L105.451 135.8C105.995 136.76 106.748 137.529 107.709 138.106C108.67 138.682 109.711 138.97 110.832 138.97C111.536 138.97 112.321 138.794 113.186 138.442C114.05 138.089 114.787 137.465 115.395 136.568C116.004 135.671 116.308 134.695 116.308 133.638V102.555C116.308 101.691 115.908 100.938 115.107 100.297C114.339 99.6249 113.426 99.2886 112.369 99.2886C111.312 99.2886 110.383 99.6249 109.583 100.297C108.814 100.938 108.43 101.691 108.43 102.555ZM147.662 102.555V126.96L133.682 102.459C133.137 101.498 132.385 100.73 131.424 100.153C130.463 99.5768 129.422 99.2886 128.301 99.2886C127.597 99.2886 126.812 99.4647 125.947 99.817C125.082 100.169 124.346 100.794 123.737 101.691C123.129 102.587 122.825 103.564 122.825 104.621V135.703C122.825 136.568 123.209 137.321 123.977 137.961C124.778 138.634 125.707 138.97 126.764 138.97C127.821 138.97 128.734 138.634 129.502 137.961C130.303 137.321 130.703 136.568 130.703 135.703V111.299L144.683 135.8C145.228 136.76 145.98 137.529 146.941 138.106C147.902 138.682 148.943 138.97 150.064 138.97C150.768 138.97 151.553 138.794 152.418 138.442C153.282 138.089 154.019 137.465 154.627 136.568C155.236 135.671 155.54 134.695 155.54 133.638V102.555C155.54 101.691 155.14 100.938 154.339 100.297C153.571 99.6249 152.658 99.2886 151.601 99.2886C150.544 99.2886 149.615 99.6249 148.815 100.297C148.046 100.938 147.662 101.691 147.662 102.555ZM185.596 115.046H170.079V109.473C170.047 107.872 170.832 107.087 172.433 107.119H187.278C188.143 107.119 188.879 106.767 189.488 106.062C190.096 105.358 190.401 104.509 190.401 103.516C190.401 102.555 190.096 101.723 189.488 101.018C188.879 100.313 188.143 99.9611 187.278 99.9611H168.494C166.732 99.9611 165.211 100.602 163.93 101.883C162.681 103.132 162.057 104.621 162.057 106.351V131.908C162.057 133.638 162.681 135.143 163.93 136.424C165.211 137.673 166.732 138.298 168.494 138.298H187.518C188.351 138.298 189.071 137.945 189.68 137.241C190.288 136.536 190.593 135.687 190.593 134.695C190.593 133.734 190.288 132.901 189.68 132.196C189.071 131.492 188.351 131.14 187.518 131.14H172.433C170.832 131.172 170.047 130.387 170.079 128.786V122.204H185.596C186.461 122.204 187.198 121.852 187.806 121.147C188.415 120.443 188.719 119.594 188.719 118.601C188.719 117.64 188.415 116.807 187.806 116.103C187.198 115.398 186.461 115.046 185.596 115.046ZM208.197 107.552C209.511 106.911 210.984 106.591 212.617 106.591C213.738 106.591 214.955 106.735 216.268 107.023C217.581 107.311 218.75 107.68 219.775 108.128C220.832 108.608 221.473 108.865 221.697 108.897C221.953 108.929 222.161 108.945 222.321 108.945C223.218 108.945 223.987 108.592 224.627 107.888C225.3 107.183 225.636 106.351 225.636 105.39C225.636 104.525 225.396 103.788 224.916 103.18C224.435 102.539 223.683 101.979 222.658 101.498C219.263 100.025 215.932 99.2886 212.665 99.2886C205.619 99.2886 200.463 101.963 197.196 107.311C195.178 110.674 194.17 114.662 194.17 119.274C194.17 122.604 194.666 125.599 195.659 128.257C196.684 130.883 198.157 133.045 200.079 134.743C201.584 136.056 203.473 137.081 205.747 137.817C208.053 138.586 210.519 138.97 213.146 138.97C215.259 138.97 217.309 138.714 219.295 138.202C221.281 137.721 222.914 137.049 224.195 136.184C225.636 135.223 226.357 133.942 226.357 132.341C226.357 131.316 226.053 130.467 225.444 129.794C224.836 129.09 224.067 128.738 223.138 128.738C222.53 128.738 221.873 128.962 221.168 129.41C220.015 130.115 218.734 130.675 217.325 131.092C215.916 131.476 214.539 131.668 213.194 131.668C211.432 131.668 209.831 131.316 208.39 130.611C206.948 129.907 205.779 128.898 204.883 127.585C203.505 125.695 202.817 123.037 202.817 119.61C202.817 115.799 203.569 112.708 205.075 110.338C205.843 109.121 206.884 108.192 208.197 107.552Z" fill="#E30613"/>
<defs>
<linearGradient id="paint0_linear_8_23" x1="244.061" y1="36.5429" x2="244.061" y2="166.559" gradientUnits="userSpaceOnUse">
<stop offset="0.213542" stop-color="#0A85EF"/>
<stop offset="0.895833" stop-color="#E30613"/>
</linearGradient>
<linearGradient id="paint1_linear_8_23" x1="275.781" y1="100.414" x2="275.781" y2="143.738" gradientUnits="userSpaceOnUse">
<stop offset="0.213542" stop-color="#0A85EF"/>
<stop offset="0.895833" stop-color="#E30613"/>
</linearGradient>
<linearGradient id="paint2_linear_8_23" x1="246.627" y1="16.4535" x2="289.755" y2="82.7455" gradientUnits="userSpaceOnUse">
<stop stop-color="#E30613"/>
<stop offset="1" stop-color="#0089FF"/>
</linearGradient>
<linearGradient id="paint3_linear_8_23" x1="306.98" y1="14.3046" x2="239.099" y2="54.8857" gradientUnits="userSpaceOnUse">
<stop stop-color="#E30613"/>
<stop offset="1" stop-color="#0089FF"/>
</linearGradient>
</defs>
</svg>
