<svg width="283" height="281" viewBox="0 0 283 281" fill="none" xmlns="http://www.w3.org/2000/svg">
<path d="M96.8786 117.275L90.9897 115.02C89.4193 114.437 88.2864 113.798 87.591 113.102C87.0077 112.541 86.5478 111.846 86.2113 111.016C85.8972 110.186 85.7402 109.3 85.7402 108.358C85.7402 107.258 85.9533 106.204 86.3796 105.194C86.8282 104.162 87.4339 103.299 88.1967 102.603C88.9595 101.908 89.9914 101.358 91.2926 100.954C92.5937 100.551 93.9734 100.349 95.4316 100.349C96.6879 100.349 97.9666 100.506 99.2678 100.82C100.569 101.111 101.702 101.515 102.667 102.031C103.115 102.278 103.519 102.603 103.878 103.007C104.259 103.388 104.45 103.916 104.45 104.589C104.45 105.239 104.226 105.811 103.777 106.305C103.328 106.776 102.801 107.011 102.195 107.011C102.083 107.011 101.926 107 101.724 106.978C101.545 106.955 101.163 106.798 100.58 106.507C99.795 106.103 98.9537 105.789 98.0564 105.565C97.159 105.34 96.3177 105.228 95.5326 105.228C93.9846 105.228 92.8854 105.587 92.2348 106.305C91.7412 106.911 91.4945 107.539 91.4945 108.189C91.4945 108.683 91.6739 109.109 92.0329 109.468C92.2124 109.647 92.3806 109.793 92.5376 109.905C92.7171 109.995 93.435 110.276 94.6913 110.747L99.5034 112.564C101.545 113.349 103.037 114.325 103.979 115.491C104.944 116.658 105.426 118.083 105.426 119.765C105.426 121.268 105.067 122.625 104.349 123.837C103.654 125.048 102.655 126.013 101.354 126.731C99.6043 127.673 97.3497 128.144 94.5903 128.144C93.177 128.144 91.7749 128.01 90.384 127.74C88.9931 127.471 87.8265 127.101 86.8843 126.63C86.3459 126.361 85.9197 125.991 85.6056 125.519C85.314 125.048 85.1681 124.532 85.1681 123.971C85.1681 123.276 85.3925 122.693 85.8411 122.222C86.2898 121.728 86.8282 121.481 87.4564 121.481C87.8378 121.481 88.2864 121.605 88.8024 121.851C90.5971 122.749 92.6049 123.198 94.8259 123.198C95.7008 123.198 96.4972 123.097 97.2151 122.895C97.933 122.693 98.4602 122.424 98.7967 122.087C99.0435 121.84 99.2454 121.526 99.4024 121.145C99.5594 120.763 99.638 120.382 99.638 120.001C99.638 119.373 99.436 118.857 99.0322 118.453C98.6284 118.049 97.9105 117.656 96.8786 117.275ZM115.213 121.616L113.733 125.62C113.598 126.002 113.475 126.305 113.362 126.529C113.273 126.731 113.127 126.955 112.925 127.202C112.656 127.494 112.308 127.729 111.882 127.909C111.478 128.088 111.085 128.178 110.704 128.178C109.964 128.178 109.324 127.909 108.786 127.37C108.248 126.854 107.978 126.237 107.978 125.519C107.978 125.16 108.046 124.835 108.18 124.544L116.795 103.108C117.154 102.256 117.692 101.583 118.41 101.089C119.15 100.573 119.969 100.315 120.867 100.315C121.741 100.315 122.538 100.573 123.256 101.089C123.996 101.583 124.546 102.256 124.905 103.108L133.519 124.544C133.654 124.835 133.721 125.16 133.721 125.519C133.721 126.237 133.452 126.854 132.914 127.37C132.375 127.909 131.736 128.178 130.995 128.178C130.614 128.178 130.21 128.088 129.784 127.909C129.38 127.729 129.055 127.494 128.808 127.202C128.741 127.112 128.64 126.989 128.505 126.832C128.393 126.675 128.214 126.271 127.967 125.62L126.486 121.616H115.213ZM117.03 116.703H124.669L120.867 106.305L117.03 116.703ZM154.687 119.731V102.637C154.687 102.031 154.957 101.504 155.495 101.055C156.056 100.584 156.706 100.349 157.447 100.349C158.187 100.349 158.826 100.584 159.365 101.055C159.926 101.504 160.206 102.031 160.206 102.637V124.409C160.206 125.149 159.993 125.833 159.567 126.462C159.141 127.09 158.625 127.527 158.019 127.774C157.413 128.021 156.864 128.144 156.37 128.144C155.585 128.144 154.856 127.942 154.183 127.538C153.51 127.135 152.982 126.596 152.601 125.923L142.809 108.761V125.856C142.809 126.462 142.528 126.989 141.967 127.438C141.429 127.909 140.79 128.144 140.049 128.144C139.309 128.144 138.658 127.909 138.098 127.438C137.559 126.989 137.29 126.462 137.29 125.856V104.084C137.29 103.344 137.503 102.659 137.929 102.031C138.356 101.403 138.872 100.966 139.477 100.719C140.083 100.472 140.633 100.349 141.126 100.349C141.911 100.349 142.64 100.551 143.313 100.954C143.986 101.358 144.514 101.897 144.895 102.57L154.687 119.731ZM170.996 121.616L169.515 125.62C169.381 126.002 169.257 126.305 169.145 126.529C169.055 126.731 168.91 126.955 168.708 127.202C168.438 127.494 168.091 127.729 167.665 127.909C167.261 128.088 166.868 128.178 166.487 128.178C165.746 128.178 165.107 127.909 164.569 127.37C164.03 126.854 163.761 126.237 163.761 125.519C163.761 125.16 163.828 124.835 163.963 124.544L172.578 103.108C172.936 102.256 173.475 101.583 174.193 101.089C174.933 100.573 175.752 100.315 176.649 100.315C177.524 100.315 178.321 100.573 179.038 101.089C179.779 101.583 180.328 102.256 180.687 103.108L189.302 124.544C189.437 124.835 189.504 125.16 189.504 125.519C189.504 126.237 189.235 126.854 188.696 127.37C188.158 127.909 187.518 128.178 186.778 128.178C186.397 128.178 185.993 128.088 185.567 127.909C185.163 127.729 184.838 127.494 184.591 127.202C184.524 127.112 184.423 126.989 184.288 126.832C184.176 126.675 183.996 126.271 183.75 125.62L182.269 121.616H170.996ZM172.813 116.703H180.452L176.649 106.305L172.813 116.703ZM210.1 116.232L213.97 123.803C214.194 124.229 214.34 124.544 214.407 124.745C214.497 124.947 214.542 125.205 214.542 125.519C214.542 126.237 214.273 126.854 213.734 127.37C213.196 127.886 212.556 128.144 211.816 128.144C211.457 128.144 211.087 128.066 210.706 127.909C210.324 127.774 210.01 127.595 209.763 127.37C209.696 127.303 209.595 127.191 209.461 127.034C209.348 126.877 209.135 126.484 208.821 125.856L204.716 117.073H198.76V124.712C198.76 125.205 198.737 125.62 198.692 125.957C198.647 126.271 198.49 126.619 198.221 127C197.974 127.337 197.638 127.606 197.212 127.808C196.785 128.032 196.37 128.144 195.967 128.144C195.473 128.144 195.002 128.021 194.553 127.774C194.127 127.527 193.791 127.202 193.544 126.798C193.476 126.686 193.387 126.518 193.275 126.293C193.185 126.047 193.14 125.519 193.14 124.712V106.305C193.095 105.049 193.196 104.151 193.443 103.613C193.712 103.074 194.049 102.581 194.452 102.132C194.901 101.728 195.395 101.403 195.933 101.156C196.471 100.887 197.369 100.775 198.625 100.82H204.749C206.32 100.82 207.632 100.966 208.687 101.257C209.741 101.549 210.717 102.031 211.614 102.704C212.601 103.445 213.342 104.342 213.835 105.396C214.351 106.451 214.609 107.64 214.609 108.963C214.609 110.175 214.385 111.308 213.936 112.362C213.487 113.394 212.904 114.224 212.186 114.852C211.468 115.458 210.773 115.918 210.1 116.232ZM198.76 112.126H204.548C205.176 112.126 205.759 112.093 206.297 112.025C206.836 111.936 207.341 111.734 207.812 111.42C208.081 111.218 208.316 110.96 208.518 110.646C208.72 110.332 208.821 109.816 208.821 109.098C208.821 108.088 208.53 107.303 207.946 106.742C207.655 106.473 207.251 106.249 206.735 106.069C206.241 105.867 205.434 105.766 204.312 105.766H200.409C199.287 105.744 198.737 106.294 198.76 107.415V112.126Z" fill="#0075DB"/>
<path d="M65.9887 97.9552L66.1441 97.6131L66.1131 97.582L65.5533 98.0485L65.0558 98.5149L64.6516 99.0435L64.0919 99.7898L63.7809 100.318L63.2212 101.531L63.0347 102.619V103.272L63.1901 104.423L63.6566 105.511L64.3096 106.444L64.9936 107.128L65.8643 107.968L66.8593 108.869L67.4501 109.429L68.4452 110.3L69.7511 111.481L70.3109 112.01L70.8706 112.508L71.6479 113.285L72.4253 114.031L72.8295 114.404L73.3892 114.933L73.7935 115.43L74.2288 115.99L74.5708 116.581L74.8818 117.265L75.0684 117.825L75.1305 118.571L75.0062 119.504L74.3843 121.028L75.0995 120.25L75.5037 119.846L75.9701 119.286L76.4054 118.664L76.7164 118.167L77.2139 117.047L77.4316 116.208L77.5248 115.306L77.3072 114.124L76.9651 113.347L76.5609 112.694L76.0323 111.979L75.3793 111.388L74.633 110.642L73.8557 109.927L73.4203 109.46L72.2076 108.403L71.2437 107.47L70.6529 106.91L69.5646 105.947L68.9427 105.356L68.2897 104.765L67.4501 103.956L67.0148 103.49L66.7039 103.148L66.3618 102.682L66.0509 102.153L65.8332 101.655L65.6155 101.158L65.4601 100.66L65.429 100.163V99.7276L65.4601 99.5099L65.4912 99.2922L65.5533 99.0435L65.6155 98.7947L65.7088 98.546L65.8332 98.235L65.9887 97.9552Z" fill="#E30613"/>
<path d="M61.9154 102.246L62.0709 101.904L62.0398 101.873L61.4801 102.34L60.9826 102.806L60.5784 103.335L60.0186 104.081L59.7077 104.61L59.148 105.822L58.9614 106.911V107.564L59.1169 108.714L59.5833 109.802L60.2363 110.735L60.9204 111.419L61.7911 112.259L62.7861 113.161L63.3769 113.72L64.3719 114.591L65.6779 115.773L66.2376 116.301L66.7973 116.799L67.5747 117.576L68.3521 118.322L68.7563 118.696L69.316 119.224L69.7202 119.722L70.1556 120.281L70.4976 120.872L70.8085 121.556L70.9951 122.116L71.0573 122.862L70.9329 123.795L70.311 125.319L71.0262 124.541L71.4304 124.137L71.8969 123.577L72.3322 122.956L72.6431 122.458L73.1407 121.339L73.3583 120.499L73.4516 119.597L73.2339 118.416L72.8919 117.638L72.4877 116.985L71.9591 116.27L71.3061 115.679L70.5598 114.933L69.7824 114.218L69.3471 113.752L68.1344 112.694L67.1705 111.761L66.5797 111.202L65.4913 110.238L64.8694 109.647L64.2164 109.056L63.3769 108.248L62.9416 107.781L62.6306 107.439L62.2886 106.973L61.9776 106.444L61.76 105.947L61.5423 105.449L61.3868 104.952L61.3557 104.454V104.019L61.3868 103.801L61.4179 103.584L61.4801 103.335L61.5423 103.086L61.6356 102.837L61.76 102.526L61.9154 102.246Z" fill="#E30613"/>
<path d="M57.8419 106.537L57.9974 106.195L57.9663 106.164L57.4066 106.631L56.9091 107.097L56.5049 107.626L55.9452 108.372L55.6342 108.901L55.0745 110.113L54.8879 111.202V111.855L55.0434 113.005L55.5098 114.093L56.1628 115.026L56.8469 115.71L57.7176 116.55L58.7126 117.452L59.3034 118.011L60.2984 118.882L61.6044 120.064L62.1641 120.592L62.7238 121.09L63.5012 121.867L64.2786 122.613L64.6828 122.987L65.2425 123.515L65.6467 124.013L66.0821 124.572L66.4241 125.163L66.7351 125.847L66.9216 126.407L66.9838 127.153L66.8594 128.086L66.2375 129.61L66.9527 128.832L67.357 128.428L67.8234 127.868L68.2587 127.247L68.5697 126.749L69.0672 125.63L69.2848 124.79L69.3781 123.888L69.1605 122.707L68.8184 121.929L68.4142 121.276L67.8856 120.561L67.2326 119.97L66.4863 119.224L65.7089 118.509L65.2736 118.043L64.0609 116.985L63.097 116.052L62.5062 115.493L61.4178 114.529L60.796 113.938L60.143 113.347L59.3034 112.539L58.8681 112.072L58.5571 111.73L58.2151 111.264L57.9041 110.735L57.6865 110.238L57.4688 109.74L57.3133 109.243L57.2822 108.745V108.31L57.3133 108.092L57.3444 107.875L57.4066 107.626L57.4688 107.377L57.5621 107.128L57.6865 106.817L57.8419 106.537Z" fill="#E30613"/>
<path d="M85.6035 133.066H214.471" stroke="#E30613" stroke-width="1.51312"/>
<path d="M220.353 122H217.279C217.279 122 217 122.229 217 122.432C217 122.635 217.279 122.865 217.279 122.865H219.515L222.029 131.655C222.029 131.655 221.627 132.236 221.61 132.664C221.578 133.463 222.868 134.249 222.868 134.249H231.669C231.669 134.249 232.08 134.055 232.088 133.817C232.094 133.614 231.809 133.384 231.809 133.384L222.868 133.24C222.868 133.24 222.588 132.916 222.588 132.664C222.588 132.412 222.868 132.087 222.868 132.087L231.809 132.232C231.809 132.232 233.345 128.197 234.044 124.738C234.187 124.03 233.764 124.017 233.764 124.017H220.912L220.353 122Z" fill="#E30613"/>
<path d="M225.941 135.834C225.904 135.039 225.315 134.431 224.544 134.393C223.734 134.353 223.046 134.999 223.007 135.834C222.967 136.709 223.696 137.461 224.544 137.419C225.354 137.38 225.98 136.67 225.941 135.834Z" fill="#E30613"/>
<path d="M231.11 135.834C231.071 134.999 230.384 134.393 229.573 134.393C228.762 134.393 228.075 134.999 228.037 135.834C227.996 136.709 228.725 137.419 229.573 137.419C230.422 137.419 231.15 136.709 231.11 135.834Z" fill="#E30613"/>
<path fill-rule="evenodd" clip-rule="evenodd" d="M72.0582 143.205C72.9598 142.765 73.9714 142.545 75.093 142.545C75.8627 142.545 76.6984 142.644 77.6 142.842C78.5016 143.04 79.3043 143.293 80.008 143.601C80.7337 143.931 81.1736 144.107 81.3275 144.129C81.5034 144.151 81.6464 144.162 81.7563 144.162C82.3721 144.162 82.8999 143.92 83.3397 143.436C83.8015 142.952 84.0324 142.38 84.0324 141.721C84.0324 141.127 83.8675 140.621 83.5376 140.203C83.2078 139.763 82.691 139.379 81.9873 139.049C79.6562 138.037 77.3691 137.531 75.126 137.531C70.2879 137.531 66.7473 139.368 64.5042 143.04C63.1188 145.349 62.426 148.087 62.426 151.254C62.426 153.541 62.7669 155.597 63.4486 157.422C64.1523 159.226 65.1639 160.71 66.4834 161.876C67.517 162.777 68.8145 163.481 70.3759 163.987C71.9592 164.515 73.6526 164.778 75.4558 164.778C76.9073 164.778 78.3147 164.602 79.6782 164.251C81.0416 163.921 82.1632 163.459 83.0428 162.865C84.0324 162.205 84.5272 161.326 84.5272 160.226C84.5272 159.523 84.3183 158.94 83.9005 158.478C83.4827 157.994 82.9549 157.752 82.3171 157.752C81.8993 157.752 81.4485 157.906 80.9647 158.214C80.173 158.698 79.2933 159.083 78.3257 159.369C77.3581 159.632 76.4125 159.764 75.4888 159.764C74.2793 159.764 73.1798 159.523 72.1901 159.039C71.2005 158.555 70.3979 157.862 69.7821 156.961C68.8365 155.663 68.3637 153.838 68.3637 151.485C68.3637 148.868 68.8805 146.746 69.914 145.118C70.4418 144.283 71.1566 143.645 72.0582 143.205ZM104.362 138.521C102.822 137.861 101.195 137.531 99.4796 137.531C97.2805 137.531 95.2902 137.96 93.509 138.818C91.7497 139.653 90.3422 140.841 89.2866 142.38C88.5829 143.414 88.0221 144.733 87.6043 146.339C87.3023 147.499 87.1094 148.66 87.0257 149.82H92.7973C92.871 148.913 93.0312 148.027 93.278 147.163C93.6519 145.932 94.1247 144.975 94.6965 144.294C95.2463 143.7 95.906 143.249 96.6757 142.941C97.4454 142.611 98.2811 142.446 99.1827 142.446C100.986 142.446 102.426 142.93 103.504 143.898C104.208 144.557 104.768 145.525 105.186 146.801C105.516 147.758 105.722 148.764 105.805 149.82H111.573C111.47 148.317 111.188 146.892 110.728 145.547C110.156 143.788 109.354 142.336 108.32 141.193C107.242 140.049 105.923 139.159 104.362 138.521ZM111.385 154.226H105.549C105.276 155.587 104.814 156.707 104.164 157.587C103.064 159.105 101.437 159.863 99.2817 159.863C98.1161 159.863 97.0825 159.632 96.1809 159.171C95.3012 158.687 94.5975 157.994 94.0697 157.092C93.6056 156.269 93.2639 155.313 93.0447 154.226H87.2342C87.3006 154.622 87.38 155.016 87.4724 155.41C87.8022 156.796 88.2201 157.961 88.7259 158.907C89.2536 159.852 89.7484 160.578 90.2103 161.084C91.2658 162.227 92.5963 163.129 94.2017 163.789C95.807 164.449 97.5004 164.778 99.2817 164.778C101.151 164.778 102.844 164.46 104.362 163.822C105.901 163.206 107.21 162.304 108.287 161.117C109.365 159.929 110.189 158.489 110.761 156.796C111.034 155.977 111.242 155.12 111.385 154.226ZM131.996 139.774V156.532L122.397 139.708C122.023 139.049 121.506 138.521 120.846 138.125C120.187 137.729 119.472 137.531 118.702 137.531C118.218 137.531 117.68 137.652 117.086 137.894C116.492 138.136 115.986 138.565 115.568 139.181C115.151 139.796 114.942 140.467 114.942 141.193V162.535C114.942 163.129 115.206 163.646 115.733 164.086C116.283 164.548 116.921 164.778 117.647 164.778C118.372 164.778 118.999 164.548 119.527 164.086C120.077 163.646 120.352 163.129 120.352 162.535V145.778L129.951 162.601C130.325 163.261 130.841 163.789 131.501 164.185C132.161 164.58 132.876 164.778 133.645 164.778C134.129 164.778 134.668 164.657 135.262 164.416C135.855 164.174 136.361 163.745 136.779 163.129C137.197 162.513 137.406 161.843 137.406 161.117V139.774C137.406 139.181 137.131 138.664 136.581 138.224C136.053 137.762 135.427 137.531 134.701 137.531C133.975 137.531 133.337 137.762 132.788 138.224C132.26 138.664 131.996 139.181 131.996 139.774ZM158.934 139.774V156.532L149.335 139.708C148.961 139.049 148.444 138.521 147.785 138.125C147.125 137.729 146.41 137.531 145.641 137.531C145.157 137.531 144.618 137.652 144.024 137.894C143.43 138.136 142.925 138.565 142.507 139.181C142.089 139.796 141.88 140.467 141.88 141.193V162.535C141.88 163.129 142.144 163.646 142.672 164.086C143.222 164.548 143.859 164.778 144.585 164.778C145.311 164.778 145.937 164.548 146.465 164.086C147.015 163.646 147.29 163.129 147.29 162.535V145.778L156.889 162.601C157.263 163.261 157.78 163.789 158.44 164.185C159.099 164.58 159.814 164.778 160.584 164.778C161.067 164.778 161.606 164.657 162.2 164.416C162.794 164.174 163.3 163.745 163.717 163.129C164.135 162.513 164.344 161.843 164.344 161.117V139.774C164.344 139.181 164.069 138.664 163.52 138.224C162.992 137.762 162.365 137.531 161.639 137.531C160.914 137.531 160.276 137.762 159.726 138.224C159.198 138.664 158.934 139.181 158.934 139.774ZM184.982 148.351H174.327V144.524C174.305 143.425 174.844 142.886 175.944 142.908H186.137C186.73 142.908 187.236 142.666 187.654 142.182C188.072 141.699 188.281 141.116 188.281 140.434C188.281 139.774 188.072 139.203 187.654 138.719C187.236 138.235 186.73 137.993 186.137 137.993H173.239C172.029 137.993 170.985 138.433 170.105 139.313C169.247 140.17 168.819 141.193 168.819 142.38V159.929C168.819 161.117 169.247 162.15 170.105 163.03C170.985 163.888 172.029 164.317 173.239 164.317H186.302C186.873 164.317 187.368 164.075 187.786 163.591C188.204 163.107 188.413 162.524 188.413 161.843C188.413 161.183 188.204 160.611 187.786 160.127C187.368 159.643 186.873 159.402 186.302 159.402H175.944C174.844 159.424 174.305 158.885 174.327 157.785V153.266H184.982C185.576 153.266 186.082 153.024 186.5 152.54C186.917 152.056 187.126 151.474 187.126 150.792C187.126 150.132 186.917 149.56 186.5 149.077C186.082 148.593 185.576 148.351 184.982 148.351ZM200.501 143.205C201.403 142.765 202.414 142.545 203.536 142.545C204.305 142.545 205.141 142.644 206.043 142.842C206.944 143.04 207.747 143.293 208.451 143.601C209.176 143.931 209.616 144.107 209.77 144.129C209.946 144.151 210.089 144.162 210.199 144.162C210.815 144.162 211.343 143.92 211.782 143.436C212.244 142.952 212.475 142.38 212.475 141.721C212.475 141.127 212.31 140.621 211.98 140.203C211.65 139.763 211.134 139.379 210.43 139.049C208.099 138.037 205.812 137.531 203.569 137.531C198.731 137.531 195.19 139.368 192.947 143.04C191.561 145.349 190.869 148.087 190.869 151.254C190.869 153.541 191.21 155.597 191.891 157.422C192.595 159.226 193.607 160.71 194.926 161.876C195.96 162.777 197.257 163.481 198.819 163.987C200.402 164.515 202.095 164.778 203.899 164.778C205.35 164.778 206.757 164.602 208.121 164.251C209.484 163.921 210.606 163.459 211.486 162.865C212.475 162.205 212.97 161.326 212.97 160.226C212.97 159.523 212.761 158.94 212.343 158.478C211.925 157.994 211.398 157.752 210.76 157.752C210.342 157.752 209.891 157.906 209.407 158.214C208.616 158.698 207.736 159.083 206.768 159.369C205.801 159.632 204.855 159.764 203.932 159.764C202.722 159.764 201.622 159.523 200.633 159.039C199.643 158.555 198.841 157.862 198.225 156.961C197.279 155.663 196.806 153.838 196.806 151.485C196.806 148.868 197.323 146.746 198.357 145.118C198.885 144.283 199.599 143.645 200.501 143.205ZM217.103 143.172H223.568V162.37C223.568 163.03 223.843 163.591 224.393 164.053C224.964 164.537 225.635 164.778 226.405 164.778C227.175 164.778 227.834 164.537 228.384 164.053C228.956 163.591 229.242 163.03 229.242 162.37V143.172H235.707C236.323 143.172 236.851 142.919 237.291 142.413C237.752 141.886 237.983 141.27 237.983 140.566C237.983 139.862 237.752 139.258 237.291 138.752C236.851 138.246 236.323 137.993 235.707 137.993H217.103C216.487 137.993 215.948 138.246 215.486 138.752C215.046 139.258 214.826 139.862 214.826 140.566C214.826 141.27 215.046 141.886 215.486 142.413C215.948 142.919 216.487 143.172 217.103 143.172Z" fill="#E30613"/>
<path fill-rule="evenodd" clip-rule="evenodd" d="M153.317 24.9056C96.9406 18.9397 43.215 55.0255 28.6801 111.567C14.1452 168.109 43.8076 225.631 96.0718 247.593L98.1528 239.498C50.3071 218.748 23.2847 165.738 36.6813 113.624C50.0779 61.5105 99.3148 28.1041 151.236 33.001L153.317 24.9056ZM129.562 247.829C182.091 253.606 232.239 220.045 245.778 167.376C259.318 114.706 231.572 61.1211 182.769 40.8496L184.845 32.7719C238.067 54.2415 268.457 112.337 253.78 169.432C239.102 226.528 184.463 262.765 127.485 255.907L129.562 247.829Z" fill="#FF0000"/>
<circle cx="107.083" cy="245.694" r="12.1166" stroke="#FF0000" stroke-width="4.40603"/>
<circle cx="174.275" cy="32.5525" r="12.1166" stroke="#FF0000" stroke-width="4.40603"/>
</svg>
