<svg width="91" height="91" viewBox="0 0 91 91" fill="none" xmlns="http://www.w3.org/2000/svg">
<path d="M45.173 19.8934L45.4186 19.353L45.3695 19.3039L44.4854 20.0407L43.6994 20.7775L43.0609 21.6126L42.1767 22.7915L41.6855 23.6265L40.8013 25.5422L40.5066 27.2614V28.293L40.7522 30.1104L41.489 31.8297L42.5205 33.3033L43.6012 34.3839L44.9766 35.7102L46.5484 37.1347L47.4817 38.0188L49.0536 39.3942L51.1166 41.2608L52.0008 42.0958L52.885 42.8818L54.113 44.1098L55.341 45.2887L55.9796 45.8781L56.8637 46.7132L57.5023 47.4991L58.19 48.3833L58.7303 49.3166L59.2215 50.3972L59.5162 51.2814L59.6145 52.4603L59.418 53.9339L58.4356 56.3408L59.5653 55.1128L60.2039 54.4742L60.9407 53.59L61.6284 52.6076L62.1196 51.8217L62.9055 50.0534L63.2494 48.7271L63.3967 47.3026L63.0529 45.436L62.5126 44.208L61.874 43.1765L61.039 42.0467L60.0074 41.1134L58.8285 39.9345L57.6005 38.8048L56.9128 38.068L54.9971 36.3979L53.4744 34.9242L52.5411 34.0401L50.8219 32.5173L49.8395 31.5841L48.808 30.6508L47.4817 29.3736L46.794 28.6368L46.3028 28.0965L45.7625 27.3597L45.2713 26.5246L44.9274 25.7387L44.5836 24.9528L44.338 24.1669L44.2889 23.3809V22.6932L44.338 22.3494L44.3871 22.0056L44.4854 21.6126L44.5836 21.2196L44.731 20.8267L44.9274 20.3355L45.173 19.8934Z" fill="#F2F2F2"/>
<path d="M38.7385 26.6721L38.9841 26.1318L38.935 26.0827L38.0508 26.8195L37.2649 27.5563L36.6263 28.3914L35.7421 29.5702L35.2509 30.4053L34.3667 32.321L34.072 34.0402V35.0717L34.3176 36.8892L35.0544 38.6084L36.086 40.082L37.1666 41.1627L38.542 42.4889L40.1138 43.9134L41.0471 44.7976L42.619 46.173L44.6821 48.0396L45.5662 48.8746L46.4504 49.6605L47.6784 50.8885L48.9064 52.0674L49.545 52.6569L50.4291 53.4919L51.0677 54.2779L51.7554 55.162L52.2957 56.0953L52.7869 57.176L53.0817 58.0601L53.1799 59.239L52.9834 60.7126L52.001 63.1195L53.1308 61.8915L53.7693 61.253L54.5062 60.3688L55.1938 59.3864L55.685 58.6005L56.471 56.8321L56.8148 55.5059L56.9622 54.0814L56.6183 52.2148L56.078 50.9868L55.4394 49.9553L54.6044 48.8255L53.5729 47.8922L52.394 46.7133L51.166 45.5835L50.4783 44.8467L48.5626 43.1766L47.0398 41.703L46.1065 40.8188L44.3873 39.2961L43.4049 38.3628L42.3734 37.4295L41.0471 36.1524L40.3594 35.4156L39.8682 34.8753L39.3279 34.1384L38.8367 33.3034L38.4929 32.5175L38.149 31.7315L37.9034 30.9456L37.8543 30.1597V29.472L37.9034 29.1282L37.9525 28.7843L38.0508 28.3914L38.149 27.9984L38.2964 27.6054L38.4929 27.1142L38.7385 26.6721Z" fill="#F2F2F2"/>
<path d="M32.3037 33.4506L32.5493 32.9102L32.5001 32.8611L31.616 33.5979L30.83 34.3347L30.1915 35.1698L29.3073 36.3487L28.8161 37.1837L27.9319 39.0994L27.6372 40.8186V41.8502L27.8828 43.6676L28.6196 45.3868L29.6511 46.8605L30.7318 47.9411L32.1072 49.2674L33.679 50.6919L34.6123 51.576L36.1842 52.9514L38.2472 54.818L39.1314 55.653L40.0156 56.439L41.2436 57.667L42.4716 58.8459L43.1102 59.4353L43.9943 60.2704L44.6329 61.0563L45.3206 61.9405L45.8609 62.8737L46.3521 63.9544L46.6468 64.8386L46.7451 66.0175L46.5486 67.4911L45.5662 69.898L46.696 68.67L47.3345 68.0314L48.0713 67.1472L48.759 66.1648L49.2502 65.3789L50.0362 63.6105L50.38 62.2843L50.5274 60.8598L50.1835 58.9932L49.6432 57.7652L49.0046 56.7337L48.1696 55.6039L47.138 54.6706L45.9592 53.4917L44.7311 52.362L44.0435 51.6251L42.1278 49.955L40.605 48.4814L39.6717 47.5973L37.9525 46.0745L36.9701 45.1412L35.9386 44.208L34.6123 42.9308L33.9246 42.194L33.4334 41.6537L32.8931 40.9169L32.4019 40.0818L32.0581 39.2959L31.7142 38.51L31.4686 37.724L31.4195 36.9381V36.2504L31.4686 35.9066L31.5177 35.5627L31.616 35.1698L31.7142 34.7768L31.8616 34.3839L32.0581 33.8926L32.3037 33.4506Z" fill="#F2F2F2"/>
<path fill-rule="evenodd" clip-rule="evenodd" d="M49.2982 8.00828C31.1707 6.08996 13.8956 17.6932 9.22194 35.874C4.54831 54.0547 14.0861 72.5506 30.8914 79.6122L31.5605 77.0092C16.176 70.3373 7.48707 53.2922 11.7947 36.5353C16.1023 19.7784 31.9342 9.03674 48.629 10.6113L49.2982 8.00828ZM41.66 79.6882C58.5503 81.5458 74.6752 70.7544 79.0288 53.8188C83.3823 36.8831 74.4606 19.6532 58.7684 13.135L59.4361 10.5376C76.5491 17.4411 86.3209 36.1212 81.6015 54.4801C76.8821 72.8391 59.313 84.4909 40.9923 82.2855L41.66 79.6882Z" fill="#F2F2F2"/>
<circle cx="34.432" cy="79.0016" r="3.89602" stroke="#F2F2F2" stroke-width="1.41674"/>
<circle cx="56.0373" cy="10.467" r="3.89602" stroke="#F2F2F2" stroke-width="1.41674"/>
</svg>
